<?xml version="1.0" encoding="UTF-8"?>
<svg width="160px" height="161px" viewBox="0 0 160 161" version="1.1" xmlns="http://www.w3.org/2000/svg" xmlns:xlink="http://www.w3.org/1999/xlink">
    <!-- Generator: Sketch 63.1 (92452) - https://sketch.com -->
    <title>Icons/bell</title>
    <desc>Created with Sketch.</desc>
    <defs>
        <polygon id="path-1" points="0 0.2592 159.7407 0.2592 159.7407 160 0 160"></polygon>
    </defs>
    <g id="Icons/bell" stroke="none" stroke-width="1" fill="none" fill-rule="evenodd">
        <g id="Group-6">
            <g id="Group-3" transform="translate(0.000000, 0.741000)">
                <mask id="mask-2" fill="white">
                    <use xlink:href="#path-1"></use>
                </mask>
                <g id="Clip-2"></g>
                <path d="M79.8707,6.9152 C120.2407,6.9152 153.0857,39.7592 153.0857,80.1292 C153.0857,120.5002 120.2407,153.3442 79.8707,153.3442 C39.4997,153.3442 6.6557,120.5002 6.6557,80.1292 C6.6557,39.7592 39.4997,6.9152 79.8707,6.9152 M79.8707,0.2592 C35.7597,0.2592 -0.0003,36.0192 -0.0003,80.1292 C-0.0003,124.2402 35.7597,160.0002 79.8707,160.0002 C123.9817,160.0002 159.7407,124.2402 159.7407,80.1292 C159.7407,36.0192 123.9817,0.2592 79.8707,0.2592" id="Fill-1" fill="#FFFFFF" mask="url(#mask-2)"></path>
            </g>
            <path d="M116.3043,109.7588 C116.2393,109.5678 109.8223,90.3568 109.8223,74.2148 C109.8223,59.9828 101.3423,48.9638 88.7223,45.4548 C89.4223,44.0918 89.8543,42.5708 89.8543,40.9358 C89.8543,35.4298 85.3753,30.9508 79.8703,30.9508 C74.3653,30.9508 69.8863,35.4298 69.8863,40.9358 C69.8863,42.5708 70.3193,44.0918 71.0183,45.4548 C58.3993,48.9638 49.9193,59.9828 49.9193,74.2148 C49.9193,90.3308 43.5023,109.5678 43.4373,109.7588 C42.9043,111.3418 43.6253,113.0738 45.1253,113.8088 C45.7113,114.0968 53.4413,117.7698 66.7363,119.2318 C67.6053,125.7378 73.1313,130.7898 79.8703,130.7898 C86.7773,130.7898 92.4063,125.4838 93.0543,118.7428 C99.5513,117.8508 106.5893,116.3598 114.1423,113.9968 C114.9973,113.7308 115.7093,113.1298 116.1163,112.3328 C116.5223,111.5328 116.5903,110.6078 116.3043,109.7588 M76.5423,40.9358 C76.5423,39.0988 78.0353,37.6078 79.8703,37.6078 C81.7053,37.6078 83.1993,39.0988 83.1993,40.9358 C83.1993,42.7718 81.7053,44.2628 79.8703,44.2628 C78.0353,44.2628 76.5423,42.7718 76.5423,40.9358 M79.8703,124.1338 C76.9993,124.1338 74.5713,122.2958 73.6383,119.7438 C74.9663,119.7968 76.3253,119.8308 77.7343,119.8308 C80.4043,119.8308 83.2273,119.7218 86.1803,119.4928 C85.3213,122.1738 82.8333,124.1338 79.8703,124.1338 M50.6893,108.8818 C52.5713,102.6098 56.5753,87.6828 56.5753,74.2148 C56.5753,60.4998 66.1543,50.9188 79.8703,50.9188 C93.5863,50.9188 103.1653,60.4998 103.1653,74.2148 C103.1653,87.4848 107.0533,102.1738 108.9673,108.5988 C79.0823,117.1008 57.8343,111.4228 50.6893,108.8818" id="Fill-4" fill="#FFFFFF"></path>
        </g>
    </g>
</svg>