<?xml version="1.0" encoding="UTF-8"?>
<svg width="160px" height="160px" viewBox="0 0 160 160" version="1.1" xmlns="http://www.w3.org/2000/svg" xmlns:xlink="http://www.w3.org/1999/xlink">
    <!-- Generator: Sketch 63.1 (92452) - https://sketch.com -->
    <title>Icons/bell-fill</title>
    <desc>Created with Sketch.</desc>
    <defs>
        <polygon id="path-1" points="0 0 159.7406 0 159.7406 159.741 0 159.741"></polygon>
    </defs>
    <g id="Icons/bell-fill" stroke="none" stroke-width="1" fill="none" fill-rule="evenodd">
        <g id="Group-3">
            <mask id="mask-2" fill="white">
                <use xlink:href="#path-1"></use>
            </mask>
            <g id="Clip-2"></g>
            <path d="M76.5426,39.9355 C76.5426,38.0985 78.0356,36.6075 79.8706,36.6075 C81.7056,36.6075 83.1986,38.0985 83.1986,39.9355 C83.1986,41.7715 81.7056,43.2625 79.8706,43.2625 C78.0356,43.2625 76.5426,41.7715 76.5426,39.9355 M79.8706,49.9185 C66.1536,49.9185 56.5746,59.4995 56.5746,73.2145 C56.5746,86.6825 52.5706,101.6095 50.6886,107.8815 C57.8346,110.4225 79.0826,116.1005 108.9676,107.5985 C107.0536,101.1735 103.1656,86.4845 103.1656,73.2145 C103.1656,59.4995 93.5866,49.9185 79.8706,49.9185 M73.6386,118.7445 C74.5696,121.2955 76.9996,123.1335 79.8706,123.1335 C82.8336,123.1335 85.3206,121.1735 86.1806,118.4935 C83.2276,118.7215 80.4036,118.8315 77.7336,118.8315 C76.3246,118.8315 74.9666,118.7965 73.6386,118.7445 M159.7406,79.8705 C159.7406,123.9815 123.9816,159.7415 79.8706,159.7415 C35.7596,159.7415 -0.0004,123.9815 -0.0004,79.8705 C-0.0004,35.7595 35.7596,-0.0005 79.8706,-0.0005 C123.9816,-0.0005 159.7406,35.7595 159.7406,79.8705 M116.3046,108.7585 C116.2386,108.5675 109.8216,89.3565 109.8216,73.2145 C109.8216,58.9825 101.3426,47.9635 88.7226,44.4555 C89.4226,43.0915 89.8546,41.5705 89.8546,39.9355 C89.8546,34.4295 85.3756,29.9515 79.8706,29.9515 C74.3646,29.9515 69.8866,34.4295 69.8866,39.9355 C69.8866,41.5705 70.3186,43.0915 71.0186,44.4555 C58.3986,47.9635 49.9196,58.9825 49.9196,73.2145 C49.9196,89.3315 43.5016,108.5675 43.4376,108.7585 C42.9036,110.3415 43.6256,112.0745 45.1256,112.8085 C45.7116,113.0965 53.4406,116.7695 66.7356,118.2315 C67.6046,124.7385 73.1316,129.7895 79.8706,129.7895 C86.7766,129.7895 92.4056,124.4835 93.0546,117.7435 C99.5516,116.8505 106.5896,115.3595 114.1426,112.9975 C114.9976,112.7305 115.7086,112.1295 116.1156,111.3325 C116.5216,110.5335 116.5906,109.6075 116.3046,108.7585" id="Fill-1" fill="#CCFF00" mask="url(#mask-2)"></path>
        </g>
    </g>
</svg>