<?xml version="1.0" encoding="utf-8"?>
<!-- Generator: Adobe Illustrator 23.1.1, SVG Export Plug-In . SVG Version: 6.00 Build 0)  -->
<svg version="1.1" id="Layer_1" xmlns="http://www.w3.org/2000/svg" xmlns:xlink="http://www.w3.org/1999/xlink" x="0px" y="0px"
	 viewBox="0 0 33 33" style="enable-background:new 0 0 33 33;" xml:space="preserve">
<style type="text/css">
	.st0{fill:#FFFFFF;stroke:none;stroke-miterlimit:10;}
</style>
<title>Question_mark_POS</title>
<desc>Created with Sketch.</desc>
<g id="Command-Center">
	<g transform="translate(-1750.000000, -28.000000)">
		<g id="Header">
			<g id="Question_mark_POS" transform="translate(1750.911933, 28.337349)">
				<path id="Shape" class="st0" d="M16,1.3c8.1,0,14.7,6.7,14.7,14.8S24.1,31,16,31S1.3,24.4,1.3,16.2S7.9,1.3,16,1.3 M16,0
					C7.1,0,0,7.2,0,16.2s7.1,16.2,16,16.2s16-7.2,16-16.2S24.9,0,16,0L16,0z"/>
				<path class="st0" d="M16,26.4c-1,0-1.7-0.7-1.7-1.7S15.1,23,16,23s1.7,0.7,1.7,1.7S17,26.4,16,26.4z M16,24.1
					c-0.3,0-0.6,0.2-0.6,0.6s0.2,0.6,0.6,0.6c0.3,0,0.6-0.2,0.6-0.6S16.3,24.1,16,24.1z"/>
				<path class="st0" d="M17.3,21.3h-2.6c-0.4,0-0.7-0.3-0.7-0.7V15c0-0.2,0.1-0.3,0.2-0.5c0.1-0.1,0.3-0.2,0.5-0.2H16
					c1.1,0,2-1,2-2.1c0-1.2-0.9-2.1-2-2.1c-1,0-1.8,0.7-2,1.7c-0.1,0.3-0.3,0.6-0.7,0.6l-2.6-0.2c-0.3,0-0.6-0.3-0.6-0.7
					c0,0,0-0.2,0-0.3C10.6,8.1,13.1,6,16,6c3.3,0,5.9,2.8,5.9,6.3c0,2.6-1.6,5-4,5.9v2.4C18,21,17.7,21.3,17.3,21.3z M15.3,19.9h1.3
					v-2.3c0-0.3,0.2-0.6,0.5-0.7c2-0.5,3.4-2.4,3.4-4.7c0-2.7-2-4.9-4.6-4.9c-2.1,0-3.9,1.5-4.4,3.6l1.4,0.1c0.4-1.3,1.6-2.2,3-2.2
					c1.8,0,3.3,1.5,3.3,3.5c0,1.9-1.5,3.5-3.3,3.5h-0.7V19.9z"/>
			</g>
		</g>
	</g>
</g>
</svg>
