<?xml version="1.0" encoding="UTF-8"?>
<svg width="33px" height="33px" viewBox="0 0 33 33" version="1.1" xmlns="http://www.w3.org/2000/svg" xmlns:xlink="http://www.w3.org/1999/xlink">
    <!-- Generator: Sketch 62 (91390) - https://sketch.com -->
    <title>Slice 1</title>
    <desc>Created with Sketch.</desc>
    <g id="Page-1" stroke="none" stroke-width="1" fill="none" fill-rule="evenodd">
        <g id="question" fill="#CCFF00" fill-rule="nonzero">
            <path d="M16.911933,0.337349 C25.811933,0.337349 32.911933,7.537349 32.911933,16.537349 C32.911933,25.537349 25.811933,32.737349 16.911933,32.737349 C8.011933,32.737349 0.911933,25.537349 0.911933,16.537349 C0.911933,7.537349 8.011933,0.337349 16.911933,0.337349 Z M16.911933,23.337349 C16.011933,23.337349 15.211933,24.037349 15.211933,25.037349 C15.211933,26.037349 15.911933,26.737349 16.911933,26.737349 C17.911933,26.737349 18.611933,26.037349 18.611933,25.037349 C18.611933,24.037349 17.811933,23.337349 16.911933,23.337349 Z M16.911933,24.437349 C17.211933,24.437349 17.511933,24.637349 17.511933,25.037349 C17.511933,25.437349 17.211933,25.637349 16.911933,25.637349 C16.511933,25.637349 16.311933,25.437349 16.311933,25.037349 C16.311933,24.637349 16.611933,24.437349 16.911933,24.437349 Z M16.911933,6.337349 C14.0903114,6.337349 11.6473603,8.32536945 11.0568247,11.2882107 L11.011933,11.537349 L11.011933,11.837349 C11.011933,12.2009854 11.2598669,12.4819771 11.5303402,12.5300612 L11.611933,12.537349 L14.211933,12.737349 C14.611933,12.737349 14.811933,12.437349 14.911933,12.137349 C15.111933,11.137349 15.911933,10.437349 16.911933,10.437349 C18.011933,10.437349 18.911933,11.337349 18.911933,12.537349 C18.911933,13.587349 18.0918917,14.5462333 17.0606276,14.6312352 L16.911933,14.637349 L15.611933,14.637349 C15.411933,14.637349 15.211933,14.737349 15.111933,14.837349 C15.031933,14.997349 14.951933,15.093349 14.923133,15.227749 L14.911933,15.337349 L14.911933,20.937349 C14.911933,21.3040157 15.1640163,21.5866546 15.5141321,21.6312147 L15.611933,21.637349 L18.211933,21.637349 C18.5811638,21.637349 18.8651874,21.3817277 18.8280459,21.0277905 L18.811933,20.937349 L18.811933,18.537349 C21.211933,17.637349 22.811933,15.237349 22.811933,12.637349 C22.811933,9.137349 20.211933,6.337349 16.911933,6.337349 Z M16.811933,7.637349 C19.411933,7.637349 21.411933,9.837349 21.411933,12.537349 C21.411933,14.837349 20.011933,16.737349 18.011933,17.237349 C17.7452663,17.3262379 17.557612,17.5731515 17.5192032,17.8376233 L17.511933,17.937349 L17.511933,20.237349 L16.111933,20.237349 L16.111933,16.137349 L16.811933,16.137349 C18.611933,16.137349 20.111933,14.537349 20.111933,12.637349 C20.111933,10.637349 18.611933,9.137349 16.811933,9.137349 C15.4755694,9.137349 14.3214371,9.95739032 13.8713808,11.1626026 L13.811933,11.337349 L12.411933,11.237349 C12.911933,9.137349 14.711933,7.637349 16.811933,7.637349 Z" id="Combined-Shape"></path>
        </g>
    </g>
</svg>