<?xml version="1.0" encoding="utf-8"?>
<!-- Generator: Adobe Illustrator 23.1.1, SVG Export Plug-In . SVG Version: 6.00 Build 0)  -->
<svg version="1.1" id="Layer_1" xmlns="http://www.w3.org/2000/svg" xmlns:xlink="http://www.w3.org/1999/xlink" x="0px" y="0px"
	 viewBox="0 0 160 161" style="enable-background:new 0 0 160 161;" xml:space="preserve">
<style type="text/css">
	.st0{fill-rule:evenodd;clip-rule:evenodd;fill:#FFFFFF;stroke:none;stroke-miterlimit:10;}
</style>
<title>Icons/options-menu-style-4</title>
<desc>Created with Sketch.</desc>
<g>
	<path id="Fill-1" class="st0" d="M119.8,77.5H39.9c-1.8,0-3.3,1.5-3.3,3.3c0,1.8,1.5,3.3,3.3,3.3h79.9c1.8,0,3.3-1.5,3.3-3.3
		C123.1,79,121.6,77.5,119.8,77.5"/>
	<path id="Fill-3" class="st0" d="M39.9,57.6h79.9c1.8,0,3.3-1.5,3.3-3.3c0-1.8-1.5-3.3-3.3-3.3H39.9c-1.8,0-3.3,1.5-3.3,3.3
		C36.6,56.1,38.1,57.6,39.9,57.6"/>
	<path id="Fill-5" class="st0" d="M119.8,104.2H39.9c-1.8,0-3.3,1.5-3.3,3.3c0,1.8,1.5,3.3,3.3,3.3h79.9c1.8,0,3.3-1.5,3.3-3.3
		C123.1,105.7,121.6,104.2,119.8,104.2"/>
	<path id="Fill-7" class="st0" d="M79.9,7.7c40.4,0,73.2,32.8,73.2,73.2c0,40.4-32.8,73.2-73.2,73.2S6.7,121.2,6.7,80.9
		C6.7,40.5,39.5,7.7,79.9,7.7 M79.9,1C35.8,1,0,36.8,0,80.9c0,44.1,35.8,79.9,79.9,79.9s79.9-35.8,79.9-79.9
		C159.7,36.8,124,1,79.9,1"/>
</g>
</svg>
